#!OML:ASF F:\VICON\USERDATA\INSTALL\rory3\rory3.ASF
:FULLY-SPECIFIED
:DEGREES
1111
root 1.71869 17.9525 -2.56741 177.913 59.7482 172.838
lowerback 3.95351 2.30194 -5.08351
upperback 1.01374 2.89883 -1.97949
thorax -1.31797 1.48625 0.659301
lowerneck -8.12647 -1.27215 -5.33555
upperneck 24.8129 -0.546576 2.73808
head 9.1383 -0.105348 1.85046
rclavicle -4.85035e-014 7.95139e-015
rhumerus -39.4241 -5.40303 -78.5836
rradius 27.1088
rwrist -2.1305
rhand -10.4124 15.9876
rfingers 7.12502
rthumb 15.5865 -13.4044
lclavicle -4.85035e-014 7.95139e-015
lhumerus -44.3684 -1.04575 80.4183
lradius 30.6826
lwrist 11.4144
lhand -4.56884 29.5602
lfingers 7.12502
lthumb 21.2076 58.4201
rfemur -7.99069 -2.22939 17.3694
rtibia 52.7869
rfoot -4.63461 -0.0407945
rtoes -22.9608
lfemur -20.116 -1.66417 -27.4639
ltibia 20.4221
lfoot -5.5489 5.79396
ltoes -12.6005
1112
root 1.78635 17.9602 -2.63132 177.844 59.8335 172.77
lowerback 3.93616 2.3294 -5.17162
upperback 0.962222 2.93072 -2.01347
thorax -1.36545 1.50416 0.670708
lowerneck -8.16439 -1.26448 -5.27977
upperneck 24.9737 -0.539599 2.77238
head 9.20094 -0.0899588 1.85666
rclavicle 3.28492e-014 1.23246e-014
rhumerus -39.402 -5.46801 -78.5839
rradius 27.1063
rwrist -2.00894
rhand -10.7392 16.3739
rfingers 7.12502
rthumb 15.2717 -13.0423
lclavicle 3.28492e-014 1.23246e-014
lhumerus -44.3038 -1.67107 80.7149
lradius 30.9925
lwrist 11.8389
lhand -4.53821 29.479
lfingers 7.12502
lthumb 21.237 58.3356
rfemur -9.28595 -2.67334 17.1069
rtibia 54.9607
rfoot -3.54427 0.360015
rtoes -21.8256
lfemur -19.6282 -1.58631 -27.5861
ltibia 20.1744
lfoot -5.78795 5.77957
ltoes -12.1173
1113
root 1.85224 17.9673 -2.69238 177.623 59.9287 172.542
lowerback 3.90283 2.31597 -5.36212
upperback 0.938678 2.90765 -2.0478
thorax -1.37727 1.49444 0.743095
lowerneck -8.20494 -1.21018 -5.29574
upperneck 25.1252 -0.457139 2.81398
head 9.25808 -0.0456588 1.88521
rclavicle -5.62561e-014 1.90833e-014
rhumerus -39.2318 -5.50964 -78.5866
rradius 27.0477
rwrist -1.77777
rhand -10.8819 16.3938
rfingers 7.12502
rthumb 15.1343 -13.0328
lclavicle -5.62561e-014 1.90833e-014
lhumerus -44.1659 -2.13277 80.9517
lradius 31.2209
lwrist 12.2576
lhand -4.51633 29.5357
lfingers 7.12502
lthumb 21.2581 58.3899
rfemur -10.6088 -3.22289 16.7823
rtibia 57.0572
rfoot -2.51917 0.790051
rtoes -22.2867
lfemur -19.1025 -1.53514 -27.7848
ltibia 19.878
lfoot -5.99292 5.83245
ltoes -11.9401
1114
root 1.91641 17.9748 -2.75353 177.117 59.9717 171.998
lowerback 3.88216 2.30334 -5.66885
upperback 0.933906 2.88343 -2.13663
thorax -1.37922 1.4853 0.823831
lowerneck -8.25523 -1.15076 -5.34494
upperneck 25.1987 -0.38167 2.90924
head 9.28987 -0.00407165 1.93583
rclavicle -3.89121e-014 -1.07344e-014
rhumerus -39.067 -5.43872 -78.669
rradius 27.1035
rwrist -1.87456
rhand -10.9318 15.9421
rfingers 7.12502
rthumb 15.0861 -13.4881
lclavicle -3.89121e-014 -1.07344e-014
lhumerus -44.0242 -2.16055 80.9193
lradius 31.5219
lwrist 12.1987
lhand -4.3384 29.4753
lfingers 7.12502
lthumb 21.429 58.3102
rfemur -11.9304 -3.79477 16.2961
rtibia 59.0783
rfoot -1.5783 1.16107
rtoes -24.79
lfemur -18.5581 -1.55446 -28.1607
ltibia 19.5603
lfoot -6.17292 5.96709
ltoes -11.5796
1115
root 1.97914 17.9826 -2.81326 176.658 59.9798 171.502
lowerback 3.88724 2.30553 -5.94694
upperback 0.904445 2.87678 -2.2385
thorax -1.41989 1.48617 0.872329
lowerneck -8.31124 -1.1408 -5.25402
upperneck 25.3502 -0.368773 2.90256
head 9.3527 0.0126547 1.92258
rclavicle -3.27995e-014 8.74653e-015
rhumerus -39.0324 -5.28716 -78.8233
rradius 27.3122
rwrist -2.21446
rhand -10.8534 15.7664
rfingers 7.12502
rthumb 15.1617 -13.6582
lclavicle -3.27995e-014 8.74653e-015
lhumerus -43.8797 -2.3932 80.941
lradius 31.8577
lwrist 12.3118
lhand -4.21092 29.3768
lfingers 7.12502
lthumb 21.5514 58.1977
rfemur -13.186 -4.20145 15.847
rtibia 61.0049
rfoot -0.67042 1.24113
rtoes -25.9332
lfemur -18.0314 -1.53077 -28.5201
ltibia 19.2619
lfoot -6.41535 6.00919
ltoes -10.3993
1116
root 2.04295 17.9919 -2.87223 176.578 60.0298 171.494
lowerback 3.90525 2.31477 -5.9611
upperback 0.889207 2.88691 -2.27427
thorax -1.4451 1.49252 0.841571
lowerneck -8.32545 -1.12318 -5.11977
upperneck 25.4964 -0.336763 2.83068
head 9.40507 0.0362016 1.88116
rclavicle 4.88513e-014 -1.15295e-014
rhumerus -38.9396 -5.39474 -78.859
rradius 27.4118
rwrist -2.27873
rhand -10.7845 15.8051
rfingers 7.12502
rthumb 15.228 -13.6145
lclavicle 4.88513e-014 -1.15295e-014
lhumerus -43.6384 -2.98903 81.1801
lradius 32.1138
lwrist 12.8921
lhand -4.3941 29.3996
lfingers 7.12502
lthumb 21.3755 58.2406
rfemur -14.3492 -4.55094 15.6951
rtibia 62.767
rfoot 0.199313 0.823667
rtoes -24.5938
lfemur -17.49 -1.51727 -28.5916
ltibia 19.0206
lfoot -6.76985 6.07825
ltoes -8.75288
1117
root 2.1058 17.9983 -2.92926 176.557 60.0236 171.582
lowerback 3.95836 2.29559 -5.91948
upperback 0.892673 2.8595 -2.29883
thorax -1.46636 1.47949 0.792706
lowerneck -8.32243 -1.07942 -4.99924
upperneck 25.5917 -0.274484 2.77707
head 9.43486 0.0735386 1.85043
rclavicle 6.01324e-014 -3.4191e-014
rhumerus -38.7813 -5.60146 -78.859
rradius 27.4925
rwrist -2.19532
rhand -10.8275 15.7537
rfingers 7.12502
rthumb 15.1866 -13.669
lclavicle 6.01324e-014 -3.4191e-014
lhumerus -43.3409 -3.3321 81.2777
lradius 32.3496
lwrist 13.224
lhand -4.55923 29.5073
lfingers 7.12502
lthumb 21.2169 58.3662
rfemur -15.4457 -5.04593 15.6229
rtibia 64.3652
rfoot 0.635539 0.128908
rtoes -22.5092
lfemur -16.9732 -1.6962 -28.6111
ltibia 18.8565
lfoot -7.15766 6.53294
ltoes -7.63641
1118
root 2.16618 18.0022 -2.984 176.332 59.9727 171.398
lowerback 4.03127 2.27353 -6.01158
upperback 0.86883 2.82123 -2.37332
thorax -1.52999 1.46384 0.765482
lowerneck -8.34742 -1.06621 -4.91693
upperneck 25.7415 -0.264808 2.80756
head 9.49167 0.0926358 1.85119
rclavicle -7.98617e-014 1.39149e-014
rhumerus -38.6867 -5.7132 -78.9709
rradius 27.6473
rwrist -2.33245
rhand -11.016 15.7013
rfingers 7.12502
rthumb 15.0051 -13.735
lclavicle -7.98617e-014 1.39149e-014
lhumerus -43.08 -3.45935 81.2394
lradius 32.5786
lwrist 13.2553
lhand -4.69019 29.2495
lfingers 7.12502
lthumb 21.0911 58.1224
rfemur -16.495 -5.52087 15.4422
rtibia 65.7911
rfoot 0.622805 -0.319877
rtoes -21.9583
lfemur -16.5178 -1.94419 -28.7816
ltibia 18.7291
lfoot -7.34298 6.97847
ltoes -7.7088
1119
root 2.22709 18.0021 -3.03703 175.897 59.9783 171.058
lowerback 4.14281 2.26651 -6.25037
upperback 0.874264 2.79545 -2.4036
thorax -1.59468 1.45472 0.863187
lowerneck -8.43474 -1.05038 -4.93971
upperneck 25.9598 -0.220422 2.81743
head 9.58442 0.116404 1.8681
rclavicle -1.83379e-014 -1.86858e-014
rhumerus -38.6293 -5.49863 -79.144
rradius 27.9666
rwrist -2.91266
rhand -11.0621 15.6088
rfingers 7.12502
rthumb 14.9606 -13.8309
lclavicle -1.83379e-014 -1.86858e-014
lhumerus -42.7852 -3.50125 81.2481
lradius 32.7517
lwrist 13.2464
lhand -4.78703 28.9339
lfingers 7.12502
lthumb 20.998 57.8172
rfemur -17.4488 -5.89833 15.1866
rtibia 67.1007
rfoot 0.400463 -0.483192
rtoes -22.5941
lfemur -15.9791 -2.09105 -29.0108
ltibia 18.5886
lfoot -7.41859 6.98695
ltoes -8.79252
